<?xml version="1.0" encoding="UTF-8" standalone="no"?>
<!DOCTYPE svg PUBLIC "-//W3C//DTD SVG 1.1//EN" "http://www.w3.org/Graphics/SVG/1.1/DTD/svg11.dtd">
<svg width="100%" height="100%" viewBox="0 0 221 221" version="1.1" xmlns="http://www.w3.org/2000/svg" xmlns:xlink="http://www.w3.org/1999/xlink" xml:space="preserve" xmlns:serif="http://www.serif.com/" style="fill-rule:evenodd;clip-rule:evenodd;stroke-linejoin:round;stroke-miterlimit:2;">
    <g transform="matrix(1,0,0,1,-185.571,-285.72)">
        <g transform="matrix(0.707107,0.707107,-0.707107,0.707107,389.519,268.777)">
            <path d="M0,285.025C-5.187,285.025 -5.339,282.585 -5.339,282.585L-5.339,279.534C-5.339,276.559 -0.153,276.635 -0.153,276.635L3.89,276.635L3.89,268.932L1.296,268.932C-1.297,268.932 -2.517,265.119 -2.517,265.119L-2.517,135.458L6.33,111.661L6.33,78.712L8.771,74.441C8.771,74.441 9.686,57.356 11.211,40.881C12.737,24.407 22.881,0 24.025,0C25.169,0 35.237,24.407 36.763,40.881C38.288,57.356 39.203,74.441 39.203,74.441L41.644,78.712L41.644,111.661L50.491,135.458L50.491,265.119C50.491,265.119 49.271,268.932 46.678,268.932L44.085,268.932L44.085,276.635L48.127,276.635C48.127,276.635 53.313,276.559 53.313,279.534L53.313,282.585C53.313,282.585 53.161,285.025 47.975,285.025L0,285.025Z" style="fill:rgb(29,29,27);fill-rule:nonzero;"/>
        </g>
    </g>
</svg>
